# xmcd CD database file
#
# Track frame offsets:
#	150
#	15067
#	25440
#	40282
#	51300
#	60879
#	76508
#	90197
#	108613
#	122011
#	140298
#	149756
#	165411
#	176196
#	193152
#	207755
#	222544
#	245731
#	260723
#
# Disc length: 3625 seconds
#
# Revision: 3
# Processed by: cddbd v1.5.2PL0 Copyright (c) Steve Scherf et al.
# Submitted via: CDex 1.51
#
DISCID=0c0e2713
DTITLE=Various Artist - Eccentric Soul - The Capsoul Label
DYEAR=2004
DGENRE=Soul
TTITLE0=Johnson, Hawkins, Tatum and Durr - You're All I Need to Make It
TTITLE1=Marion Black - Who Knows
TTITLE2=Kool Blues - I'm Gonna Keep on Loving You
TTITLE3=Bill Moss - Sock It to 'Em Soul Brother
TTITLE4=Four Mints - Too Far Gone
TTITLE5=Johnson, Hawkins, Tatum and Durr - You Can't Blame Me
TTITLE6=Bill Moss  - Number One
TTITLE7=Four Mints - Row My Boat
TTITLE8=Ronnie Taylor - Without Love
TTITLE9=Kool Blues - I Want to Be Ready
TTITLE10=Johnson, Hawkins, Tatum and Durr - Your Love Keeps Drawing Me Closer
TTITLE11=Elijah and The Ebonites - Hot Grits!!!
TTITLE12=Ronnie Taylor - I Can't take It
TTITLE13=Kool Blues - Can We Try Love Again
TTITLE14=Four Mints - You're My Desire
TTITLE15=Johnson, Hawkins, Tatum and Durr - A World Without You
TTITLE16=Marion Black - Go on Fool
TTITLE17=Elijah and The Ebonites - Pure Soul
TTITLE18=Bill Moss - Sock It to 'Em Soul Brother (extended play)
EXTD=YEAR: 2004
EXTT0=
EXTT1=
EXTT2=
EXTT3=
EXTT4=
EXTT5=
EXTT6=
EXTT7=
EXTT8=
EXTT9=
EXTT10=
EXTT11=
EXTT12=
EXTT13=
EXTT14=
EXTT15=
EXTT16=
EXTT17=
EXTT18=
PLAYORDER=
